<?xml version="1.0" ?><!DOCTYPE svg  PUBLIC '-//W3C//DTD SVG 1.1//EN'  'http://www.w3.org/Graphics/SVG/1.1/DTD/svg11.dtd'><svg xmlns="http://www.w3.org/2000/svg" width="998.000" height="998.000" viewBox="13.000 13.000 998.000 998.000"><path d="M607.9200000000001 800.72 C711.2808828251985,800.72 800.72,725.9068969362113 800.72,625.9200000000001" stroke="#d82626" fill="none" stroke-width="6.0" stroke-linecap="round"/><path d="M800.72 589.9200000000001 C800.72,467.38666666666677 800.72,344.8533333333334 800.72,222.32000000000005" stroke="#d82626" fill="none" stroke-width="6.0" stroke-linecap="round"/><path d="M800.72 222.32000000000005 C800.72,93.75428920140101 656.3149821832902,29.520000000000067 511.52,29.52000000000001 C369.10618191591425,29.52000000000004 222.32000000000005,80.0114639824032 222.32000000000005,204.32000000000005" stroke="#d82626" fill="none" stroke-width="6.0" stroke-linecap="round"/><path d="M222.32000000000005 240.32000000000005 C222.32000000000005,298.5866666666667 222.32000000000005,356.85333333333335 222.32000000000005,415.12" stroke="#d82626" fill="none" stroke-width="6.0" stroke-linecap="round"/><path d="M222.32000000000005 415.12 C222.32000000000005,678.6315362884224 222.32000000000016,993.52 415.1200000000001,993.52 C518.4808828251986,993.52 607.9200000000001,918.7068969362113 607.9200000000001,818.72" stroke="#d82626" fill="none" stroke-width="6.0" stroke-linecap="round"/><path d="M607.9200000000001 782.72 C607.9200000000001,724.4533333333334 607.9200000000001,666.1866666666667 607.9200000000001,607.9200000000001" stroke="#d82626" fill="none" stroke-width="6.0" stroke-linecap="round"/><path d="M607.9200000000001 607.9200000000001 C607.9200000000001,455.4265501212657 417.5093879752692,415.12 240.32000000000005,415.12" stroke="#d82626" fill="none" stroke-width="6.0" stroke-linecap="round"/><path d="M204.32000000000005 415.12 C119.44784195572191,415.12 29.52000000000001,392.02357666669 29.52000000000001,318.72 C29.52000000000001,239.42841227307656 130.00614573139597,222.32000000000005 222.32000000000005,222.32000000000005" stroke="#d82626" fill="none" stroke-width="6.0" stroke-linecap="round"/><path d="M222.32000000000005 222.32000000000005 C409.12,222.32000000000005 595.9200000000001,222.32000000000005 782.72,222.32000000000005" stroke="#d82626" fill="none" stroke-width="6.0" stroke-linecap="round"/><path d="M818.72 222.32000000000005 C918.7068969362113,222.32000000000005 993.52,311.7591171748016 993.52,415.1200000000001 C993.52,521.6004997673771 907.2004997673769,607.9200000000001 800.72,607.9200000000001" stroke="#d82626" fill="none" stroke-width="6.0" stroke-linecap="round"/><path d="M800.72 607.9200000000001 C742.4533333333334,607.9200000000001 684.1866666666667,607.9200000000001 625.9200000000001,607.9200000000001" stroke="#d82626" fill="none" stroke-width="6.0" stroke-linecap="round"/><path d="M589.9200000000001 607.9200000000001 C505.047841955722,607.9200000000001 415.12,631.0164233333101 415.12,704.32 C415.12,783.6115877269235 515.606145731396,800.72 607.9200000000001,800.72" stroke="#d82626" fill="none" stroke-width="6.0" stroke-linecap="round"/></svg>