<?xml version="1.0" ?><!DOCTYPE svg  PUBLIC '-//W3C//DTD SVG 1.1//EN'  'http://www.w3.org/Graphics/SVG/1.1/DTD/svg11.dtd'><svg xmlns="http://www.w3.org/2000/svg" width="1063.000" height="1419.000" viewBox="-1.000 -5.000 1063.000 1419.000"><text x="10.0" y="37" fill="#d82626" stroke-width="0.0" font-family="Nimbus Sans" font-size="26.0pt" font-weight="bold">0</text><line x1="88.26282759152616" y1="510.8988566284274" x2="87.20091783286932" y2="301.88433581526175" stroke="#d82626" fill="none" stroke-width="6.0"/><polygon points="87.20091783286932 301.88433581526175 97.35320345666614 331.8331437483473 87.3025276205303 321.8840776998724 77.35346157205544 331.9347535360083" fill="#d82626"/><line x1="87.20091783286932" y1="301.88433581526175" x2="1023.8053249682321" y2="299.7623609846713" stroke="#d82626" fill="none" stroke-width="6.0"/><polygon points="1023.8053249682321 299.7623609846713 993.8280579457099 309.8303032699851 1003.805376297656 299.8076729513552 993.7827459790261 289.8303545994091" fill="#d82626"/><line x1="1023.8053249682321" y1="299.7623609846713" x2="1038.6720615894278" y2="1395.7623609846712" stroke="#d82626" fill="none" stroke-width="6.0"/><polygon points="1038.6720615894278 1395.7623609846712 1028.2660826572412 1365.9007534850257 1038.4007957300448 1375.7642006984465 1048.2642429434657 1365.629487625643" fill="#d82626"/><line x1="1038.6720615894278" y1="1395.7623609846712" x2="26.6720615894277" y2="1389.3964364928997" stroke="#d82626" fill="none" stroke-width="6.0"/><polygon points="26.6720615894277 1389.3964364928997 56.73437121035444 1379.5853437782457 46.67166590491453 1389.5222427882927 56.60856491496146 1399.5849480937327" fill="#d82626"/><line x1="26.6720615894277" y1="1389.3964364928997" x2="240.1159230794591" y2="1184.6258653409152" stroke="#d82626" fill="none" stroke-width="6.0"/><polygon points="240.1159230794591 1184.6258653409152 225.39037032154866 1212.61082730219 225.68359903245786 1198.4717319660979 211.54450369636587 1198.1785032551888" fill="#d82626"/><line x1="26.6720615894277" y1="1063.673299997256" x2="218.87772790632152" y2="904.5251877029675" stroke="#d82626" fill="none" stroke-width="6.0"/><polygon points="218.87772790632152 904.5251877029675 202.14831477586506 931.3603649207635 203.4730445844885 917.2804114075537 189.39309107127883 915.9556815989304" fill="#d82626"/><line x1="40.47688845196694" y1="777.2066978675368" x2="227.37300597557646" y2="611.6926610814764" stroke="#d82626" fill="none" stroke-width="6.0"/><polygon points="227.37300597557646 611.6926610814764 211.54386400074017 639.0685311925885 212.4003467684523 624.9523547531765 198.28417032904022 624.0958719854642" fill="#d82626"/><line x1="227.37300597557646" y1="611.6926610814764" x2="842.2187562379058" y2="602.1437743438194" stroke="#d82626" fill="none" stroke-width="6.0"/><polygon points="842.2187562379058 602.1437743438194 812.377660226114 612.608428605429 822.2211677785089 602.4543476984268 812.0670868715066 592.6108401460319" fill="#d82626"/><line x1="842.2187562379058" y1="602.1437743438194" x2="830.5377488926806" y2="1322.5542293292986" stroke="#d82626" fill="none" stroke-width="6.0"/><polygon points="830.5377488926806 1322.5542293292986 821.0254305698983 1292.3960496739205 830.8619938300868 1302.5568578715151 841.0228020276817 1292.7202946113266" fill="#d82626"/><line x1="830.5377488926806" y1="1322.5542293292986" x2="276.22085487379263" y2="1316.1883048375269" stroke="#d82626" fill="none" stroke-width="6.0"/><polygon points="276.22085487379263 1316.1883048375269 306.3337118634346 1306.533469576303 296.2195361198226 1316.417975078721 306.1040416222405 1326.5321508223328" fill="#d82626"/><line x1="276.22085487379263" y1="1316.1883048375269" x2="169.24353599024369" y2="1275.1852370003332" stroke="#d82626" fill="none" stroke-width="6.0"/><line x1="135.62816072396424" y1="1262.3008842534077" x2="29.857790865398215" y2="1221.760424876249" stroke="#d82626" fill="none" stroke-width="6.0"/><polygon points="29.857790865398215 1221.760424876249 61.449590461443734 1223.1597812580537 48.532999346664575 1228.9183986245412 54.29161671315177 1241.8349897393202" fill="#d82626"/><line x1="29.857790865398215" y1="1221.760424876249" x2="199.76335225049797" y2="1053.0634258443033" stroke="#d82626" fill="none" stroke-width="6.0"/><polygon points="199.76335225049797 1053.0634258443033 185.52035328537724 1081.297040215821 185.57082999712202 1067.1549946741898 171.42878445549078 1067.104517962445" fill="#d82626"/><line x1="240.1159230794591" y1="1184.6258653409152" x2="145.72720447147992" y2="1131.1384631948054" stroke="#d82626" fill="none" stroke-width="6.0"/><line x1="114.40647148145808" y1="1113.3898946618854" x2="26.6720615894277" y2="1063.673299997256" stroke="#d82626" fill="none" stroke-width="6.0"/><polygon points="26.6720615894277 1063.673299997256 57.702830340256995 1069.76357016635 44.072468806106485 1073.5336158488783 47.84251448863475 1087.1639773830286" fill="#d82626"/><line x1="199.76335225049797" y1="1053.0634258443033" x2="134.68210317937667" y2="997.2706093121653" stroke="#d82626" fill="none" stroke-width="6.0"/><line x1="107.35071007308443" y1="973.8399680305162" x2="27.73397134808431" y2="905.5861751182628" stroke="#d82626" fill="none" stroke-width="6.0"/><polygon points="27.73397134808431 905.5861751182628 57.01864373711928 917.5196558790003 42.91807862935778 918.6031980525123 44.00162080286975 932.7037631602739" fill="#d82626"/><line x1="27.73397134808431" y1="905.5861751182628" x2="200.8252620091548" y2="765.5358362992888" stroke="#d82626" fill="none" stroke-width="6.0"/><polygon points="200.8252620091548 765.5358362992888 183.7932769883843 792.1800005055883 185.2772381554326 778.1159378189144 171.21317546875875 776.631976651866" fill="#d82626"/><line x1="218.87772790632152" y1="904.5251877029675" x2="132.66367809740495" y2="842.9972113894013" stroke="#d82626" fill="none" stroke-width="6.0"/><line x1="103.36067705372727" y1="822.0846761572918" x2="40.47688845196694" y2="777.2066978675368" stroke="#d82626" fill="none" stroke-width="6.0"/><line x1="200.8252620091548" y1="765.5358362992888" x2="166.6981782511956" y2="688.3340808640821" stroke="#d82626" fill="none" stroke-width="6.0"/><line x1="152.14304155760226" y1="655.4076781478605" x2="88.26282759152616" y2="510.8988566284274" stroke="#d82626" fill="none" stroke-width="6.0"/><polygon points="88.26282759152616 510.8988566284274 109.53833114624886 534.2944320326139 96.34901464352247 529.1913025818839 91.24588519279236 542.3806190846103" fill="#d82626"/><ellipse cx="88.26282759152616" cy="510.89885662842744" rx="2.0" ry="2.0000000000000284" stroke="#d82626" fill="#d82626"/><circle cx="87.20091783286932" cy="301.88433581526175" r="2.0" stroke="#d82626" fill="#d82626"/><circle cx="1023.8053249682321" cy="299.7623609846713" r="2.0" stroke="#d82626" fill="#d82626"/><circle cx="1038.6720615894278" cy="1395.7623609846712" r="2.0" stroke="#d82626" fill="#d82626"/><circle cx="26.6720615894277" cy="1389.3964364928997" r="2.0" stroke="#d82626" fill="#d82626"/><circle cx="240.1159230794591" cy="1184.6258653409152" r="2.0" stroke="#d82626" fill="#d82626"/><circle cx="26.6720615894277" cy="1063.673299997256" r="2.0" stroke="#d82626" fill="#d82626"/><circle cx="218.87772790632152" cy="904.5251877029675" r="2.0" stroke="#d82626" fill="#d82626"/><circle cx="40.47688845196694" cy="777.2066978675368" r="2.0" stroke="#d82626" fill="#d82626"/><circle cx="227.37300597557646" cy="611.6926610814764" r="2.0" stroke="#d82626" fill="#d82626"/><circle cx="842.2187562379058" cy="602.1437743438194" r="2.0" stroke="#d82626" fill="#d82626"/><circle cx="830.5377488926806" cy="1322.5542293292986" r="2.0" stroke="#d82626" fill="#d82626"/><circle cx="276.22085487379263" cy="1316.1883048375269" r="2.0" stroke="#d82626" fill="#d82626"/><circle cx="29.857790865398215" cy="1221.760424876249" r="2.0" stroke="#d82626" fill="#d82626"/><circle cx="199.76335225049797" cy="1053.0634258443033" r="2.0" stroke="#d82626" fill="#d82626"/><circle cx="27.73397134808431" cy="905.5861751182628" r="2.0" stroke="#d82626" fill="#d82626"/><circle cx="200.8252620091548" cy="765.5358362992888" r="2.0" stroke="#d82626" fill="#d82626"/><text x="142.43584835710396" y="1280" fill="#000" stroke-width="0.0" text-anchor="end" font-family="Noto Sans" font-size="16.0pt">1</text><text x="162.43584835710396" y="1280" fill="#000" stroke-width="0.0" font-family="Noto Sans" font-size="16.0pt">6</text><text x="120.06683797646906" y="1133" fill="#000" stroke-width="0.0" text-anchor="end" font-family="Noto Sans" font-size="16.0pt">2</text><text x="140.06683797646906" y="1133" fill="#000" stroke-width="0.0" font-family="Noto Sans" font-size="16.0pt">7 *</text><text x="111.01640662623056" y="997" fill="#000" stroke-width="0.0" text-anchor="end" font-family="Noto Sans" font-size="16.0pt">3</text><text x="131.01640662623055" y="997" fill="#000" stroke-width="0.0" font-family="Noto Sans" font-size="16.0pt">8</text><text x="108.01217757556608" y="844" fill="#000" stroke-width="0.0" text-anchor="end" font-family="Noto Sans" font-size="16.0pt">4</text><text x="128.01217757556608" y="844" fill="#000" stroke-width="0.0" font-family="Noto Sans" font-size="16.0pt">9 *</text><text x="149.42060990439887" y="683" fill="#000" stroke-width="0.0" text-anchor="end" font-family="Noto Sans" font-size="16.0pt">5</text><text x="169.42060990439887" y="683" fill="#000" stroke-width="0.0" font-family="Noto Sans" font-size="16.0pt">10</text></svg>